<svg xmlns="http://www.w3.org/2000/svg" width="410" height="404" viewBox="0 0 410 404" fill="none">
  <rect width="410" height="404" rx="50" fill="#115e59"/>
  <g transform="translate(80, 80)">
    <!-- Checkbox -->
    <rect x="0" y="0" width="60" height="60" rx="10" fill="white"/>
    <path d="M15 30 L25 45 L45 15" stroke="#115e59" stroke-width="8" stroke-linecap="round" stroke-linejoin="round"/>

    <!-- Text lines -->
    <rect x="80" y="10" width="200" height="15" rx="5" fill="white"/>
    <rect x="80" y="35" width="150" height="15" rx="5" fill="white"/>

    <!-- Second row -->
    <rect y="100" width="60" height="60" rx="10" fill="white"/>
    <path d="M15 130 L25 145 L45 115" stroke="#115e59" stroke-width="8" stroke-linecap="round" stroke-linejoin="round"/>

    <rect x="80" y="110" width="200" height="15" rx="5" fill="white"/>
    <rect x="80" y="135" width="100" height="15" rx="5" fill="white"/>

    <!-- Third row -->
    <rect y="200" width="60" height="60" rx="10" fill="white"/>
    <path d="M15 230 L25 245 L45 215" stroke="#115e59" stroke-width="8" stroke-linecap="round" stroke-linejoin="round"/>

    <rect x="80" y="210" width="180" height="15" rx="5" fill="white"/>
    <rect x="80" y="235" width="120" height="15" rx="5" fill="white"/>
  </g>
</svg>